<?xml version="1.0" standalone="no"?>
<!DOCTYPE svg PUBLIC "-//W3C//DTD SVG 20010904//EN"
 "http://www.w3.org/TR/2001/REC-SVG-20010904/DTD/svg10.dtd">
<svg version="1.0" xmlns="http://www.w3.org/2000/svg"
 width="315.000000pt" height="246.000000pt" viewBox="0 0 315.000000 246.000000"
 preserveAspectRatio="xMidYMid meet">
<metadata>
Created by potrace 1.15, written by Peter Selinger 2001-2017
</metadata>
<g transform="translate(0.000000,246.000000) scale(0.100000,-0.100000)"
fill="#000000" stroke="none">
<path d="M652 2358 c-84 -278 -152 -711 -139 -893 7 -99 45 -220 93 -300 20
-33 39 -77 41 -97 7 -50 -28 -120 -90 -180 l-49 -47 27 -17 c41 -27 121 -44
205 -44 78 0 100 -9 100 -41 0 -22 -50 -61 -110 -87 l-45 -19 25 -13 c40 -22
165 -17 237 9 70 25 103 18 103 -22 0 -24 -38 -66 -77 -86 -49 -25 -25 -34 70
-26 167 12 163 13 203 -25 19 -19 52 -62 71 -95 113 -187 198 -246 310 -214
60 16 109 66 196 196 35 54 76 109 91 123 29 26 34 27 194 15 94 -8 118 1 70
26 -40 20 -78 62 -78 86 0 40 33 47 103 22 72 -26 197 -31 237 -9 l25 13 -45
19 c-90 38 -132 88 -97 115 6 6 60 13 118 16 80 3 115 10 146 26 56 28 59 36
23 62 -47 36 -99 118 -105 169 -5 35 -2 53 15 80 78 131 120 266 120 385 0
198 -70 617 -141 849 l-32 106 -35 0 c-68 0 -313 -186 -427 -324 -38 -46 -75
-87 -81 -89 -7 -3 -45 5 -86 18 -172 55 -386 51 -557 -10 -24 -8 -45 -15 -47
-15 -4 0 -25 23 -103 115 -111 129 -350 305 -414 305 l-34 0 -31 -102z m560
-1287 c56 -27 88 -67 138 -174 47 -100 82 -218 110 -370 46 -254 70 -301 138
-276 33 13 50 62 93 275 65 326 142 494 247 545 61 30 342 128 342 120 0 -4
-18 -60 -40 -126 -52 -154 -78 -182 -192 -206 -110 -23 -216 -104 -260 -200
-14 -30 -49 -133 -77 -229 -57 -194 -74 -220 -137 -220 -52 0 -78 33 -109 136
-101 339 -124 385 -225 453 -34 22 -81 45 -103 51 -156 38 -172 53 -226 214
-23 66 -41 122 -41 126 0 9 279 -88 342 -119z"/>
</g>
</svg>
