<?xml version="1.0" standalone="no"?>
<!DOCTYPE svg PUBLIC "-//W3C//DTD SVG 20010904//EN"
 "http://www.w3.org/TR/2001/REC-SVG-20010904/DTD/svg10.dtd">
<svg version="1.0" xmlns="http://www.w3.org/2000/svg"
 width="900.000000pt" height="980.000000pt" viewBox="0 0 900.000000 980.000000"
 preserveAspectRatio="xMidYMid meet">
<metadata>
Created by potrace 1.15, written by Peter Selinger 2001-2017
</metadata>
<g transform="translate(0.000000,980.000000) scale(0.100000,-0.100000)"
fill="#000000" stroke="none">
<path d="M3925 9789 c-286 -12 -558 -29 -715 -44 -80 -8 -176 -17 -215 -20
-38 -3 -135 -14 -215 -25 -80 -11 -167 -22 -195 -25 -115 -14 -418 -67 -595
-105 -119 -25 -297 -72 -495 -130 -101 -29 -248 -88 -364 -146 -267 -134 -423
-285 -479 -464 -16 -52 -17 -295 -17 -3940 l0 -3885 33 -75 c103 -238 337
-402 807 -565 160 -56 539 -146 802 -191 1449 -247 3327 -229 4673 47 172 35
527 130 619 166 156 60 221 88 301 129 248 127 389 266 454 446 l26 73 -2
3875 -3 3875 -21 56 c-66 181 -216 324 -476 453 -186 92 -301 133 -588 211
-346 93 -845 179 -1280 220 -85 8 -173 17 -195 20 -70 9 -331 25 -665 40 -344
15 -895 17 -1195 4z m1260 -598 c282 -14 483 -28 640 -46 72 -7 164 -17 205
-20 41 -4 104 -11 140 -16 36 -5 115 -16 175 -24 367 -50 778 -144 1070 -244
78 -27 305 -140 305 -152 0 -12 -69 -55 -154 -94 -346 -160 -972 -294 -1696
-364 -228 -22 -256 -25 -625 -47 -354 -21 -1167 -21 -1515 0 -140 9 -295 18
-345 21 -49 3 -124 10 -165 15 -41 5 -131 14 -200 20 -136 12 -593 75 -650 90
-19 5 -78 16 -130 25 -345 58 -774 195 -941 301 l-43 27 25 20 c74 62 339 164
614 238 86 23 533 113 635 128 271 39 378 53 560 71 266 26 430 38 725 50 132
5 265 11 295 13 122 6 879 -3 1075 -12z m-3812 -1217 c128 -48 418 -129 604
-169 636 -138 1512 -223 2348 -229 418 -3 1039 15 1299 39 606 53 983 106
1386 191 165 35 499 130 610 174 52 21 104 40 115 44 l21 6 -1 -3447 0 -3446
-40 -30 c-83 -61 -281 -146 -495 -211 -161 -49 -570 -136 -780 -166 -41 -6
-115 -17 -165 -25 -49 -8 -139 -19 -200 -25 -60 -6 -171 -18 -245 -25 -636
-68 -1634 -78 -2390 -25 -248 17 -664 63 -915 101 -100 16 -505 96 -600 120
-260 65 -559 181 -663 258 l-42 31 0 780 0 779 638 3 637 3 57 28 c116 57 174
160 166 292 -6 87 -35 145 -101 199 -88 72 -61 69 -672 71 -302 1 -589 3 -637
3 l-88 2 0 475 0 475 630 0 c620 0 630 0 687 22 236 88 245 433 14 541 -45 22
-54 22 -688 25 l-643 3 0 474 0 474 643 3 642 3 52 27 c70 37 118 90 143 155
53 143 -4 303 -134 371 l-51 27 -647 3 -648 3 0 825 c0 783 1 826 18 819 9 -3
70 -26 135 -51z"/>
<path d="M6194 6626 c-17 -7 -44 -31 -61 -52 -42 -54 -2143 -3441 -2161 -3483
-18 -44 -11 -100 17 -140 25 -35 95 -71 140 -71 45 0 104 33 138 77 43 54
2079 3333 2125 3421 43 83 47 118 17 178 -34 72 -135 104 -215 70z"/>
<path d="M3770 6599 c-152 -23 -276 -86 -373 -189 -139 -146 -202 -347 -214
-676 -19 -515 155 -836 512 -943 135 -41 320 -45 467 -12 246 56 439 255 507
523 47 186 53 502 12 693 -66 314 -233 509 -501 585 -88 25 -306 35 -410 19z
m266 -314 c98 -29 154 -104 189 -255 27 -112 33 -468 11 -616 -23 -155 -49
-228 -102 -280 -106 -107 -311 -94 -401 25 -66 86 -93 240 -93 531 0 301 32
449 115 534 68 70 174 93 281 61z"/>
<path d="M6319 4839 c-429 -42 -639 -346 -641 -929 -1 -124 4 -202 16 -269 78
-428 369 -667 791 -648 220 10 356 67 495 206 114 115 168 225 207 420 25 122
25 470 0 592 -57 284 -175 455 -385 559 -119 59 -310 86 -483 69z m258 -330
c88 -45 142 -159 164 -347 15 -128 6 -482 -16 -582 -21 -98 -67 -193 -110
-226 -95 -72 -263 -69 -350 7 -47 42 -91 136 -112 244 -25 130 -25 525 0 642
36 169 93 247 207 284 48 16 166 4 217 -22z"/>
</g>
</svg>
