<?xml version="1.0" standalone="no"?>
<!DOCTYPE svg PUBLIC "-//W3C//DTD SVG 20010904//EN"
 "http://www.w3.org/TR/2001/REC-SVG-20010904/DTD/svg10.dtd">
<svg version="1.0" xmlns="http://www.w3.org/2000/svg"
 width="900.000000pt" height="980.000000pt" viewBox="0 0 900.000000 980.000000"
 preserveAspectRatio="xMidYMid meet">
<metadata>
Created by potrace 1.15, written by Peter Selinger 2001-2017
</metadata>
<g transform="translate(0.000000,980.000000) scale(0.100000,-0.100000)"
fill="#000000" stroke="none">
<path d="M3920 9789 c-293 -13 -558 -30 -710 -44 -80 -8 -176 -17 -215 -20
-38 -3 -135 -14 -215 -25 -80 -11 -167 -22 -195 -25 -115 -14 -418 -67 -595
-105 -119 -25 -297 -72 -495 -130 -101 -29 -248 -88 -364 -146 -264 -132 -409
-270 -475 -453 l-21 -56 -3 -3875 -2 -3875 26 -74 c67 -183 204 -317 467 -452
53 -27 114 -56 135 -64 20 -7 62 -23 92 -35 211 -82 585 -177 927 -236 1449
-247 3327 -229 4673 47 172 35 527 130 619 166 156 60 221 88 301 129 248 127
389 266 454 446 l26 73 -2 3875 -3 3875 -21 56 c-29 81 -81 164 -139 221 -138
138 -302 231 -617 352 -94 36 -445 130 -618 165 -301 62 -677 118 -970 146
-85 8 -173 17 -195 20 -70 9 -331 25 -665 40 -344 15 -909 17 -1200 4z m1260
-598 c281 -14 484 -28 645 -46 72 -7 164 -17 205 -20 41 -4 104 -11 140 -16
36 -5 115 -16 175 -24 367 -50 778 -144 1070 -244 78 -27 305 -140 305 -152 0
-12 -69 -55 -154 -94 -346 -160 -972 -294 -1696 -364 -214 -21 -222 -22 -625
-47 -343 -21 -1169 -21 -1515 0 -140 9 -295 18 -345 21 -49 3 -124 10 -165 15
-41 5 -131 14 -200 20 -136 12 -593 75 -650 90 -19 5 -78 16 -130 25 -345 58
-774 195 -941 301 l-43 27 25 20 c74 62 339 164 614 238 86 23 533 113 635
128 278 40 368 52 470 61 63 6 153 15 200 20 123 14 340 28 615 40 132 5 265
11 295 13 121 6 868 -3 1070 -12z m-3807 -1217 c211 -79 554 -165 892 -225
890 -156 2010 -210 3119 -149 202 11 202 11 461 35 574 54 1087 140 1440 240
72 21 147 41 168 46 21 5 89 29 150 53 62 24 121 46 132 50 l21 6 -1 -3447 0
-3446 -40 -30 c-83 -61 -281 -146 -495 -211 -161 -49 -570 -136 -780 -166 -41
-6 -115 -17 -165 -25 -49 -8 -139 -19 -200 -25 -60 -6 -171 -18 -245 -25 -636
-68 -1634 -78 -2390 -25 -248 17 -664 63 -915 101 -100 16 -505 96 -600 120
-260 65 -559 181 -663 258 l-42 31 0 780 0 779 638 3 637 3 57 28 c116 57 174
160 166 292 -6 87 -35 145 -101 199 -88 72 -61 69 -672 71 -302 1 -589 3 -637
3 l-88 2 0 475 0 475 630 0 c620 0 630 0 687 22 236 88 245 433 14 541 -45 22
-54 22 -688 25 l-643 3 0 474 0 474 643 3 642 3 52 27 c70 37 118 90 143 155
53 143 -4 303 -134 371 l-51 27 -647 3 -648 3 0 825 c0 783 1 826 18 819 9 -3
70 -26 135 -51z"/>
</g>
</svg>
